<svg width="69" height="92" viewBox="0 0 69 92" fill="none" xmlns="http://www.w3.org/2000/svg">
<path d="M34.5 88.999L33.8652 89.7725L34.5 90.293L35.1348 89.7725L34.5 88.999ZM34.5 88.999L35.1348 89.7715L35.1367 89.7705C35.138 89.7695 35.1394 89.7675 35.1416 89.7656C35.1461 89.762 35.1528 89.7569 35.1611 89.75C35.1778 89.7362 35.2026 89.716 35.2344 89.6895C35.298 89.6363 35.3916 89.5579 35.5127 89.4551C35.7552 89.2491 36.1086 88.9448 36.5576 88.5488C37.456 87.7565 38.7364 86.5953 40.2715 85.1162C43.3406 82.1591 47.4344 77.9232 51.5303 72.8076C59.6899 62.6164 68 48.7608 68 34.4902C67.9998 15.9938 53.0011 1 34.5 1C15.9989 1 1.00024 15.9938 1 34.4902C1 48.7608 9.31012 62.6164 17.4697 72.8076C21.5654 77.9231 25.6585 82.1591 28.7275 85.1162C30.2627 86.5954 31.544 87.7565 32.4424 88.5488C32.8914 88.9448 33.2448 89.2492 33.4873 89.4551C33.6084 89.5579 33.702 89.6363 33.7656 89.6895C33.7974 89.716 33.8222 89.7362 33.8389 89.75C33.8472 89.7569 33.8539 89.762 33.8584 89.7656C33.8606 89.7674 33.862 89.7695 33.8633 89.7705L33.8652 89.7715L34.5 88.999Z" fill="#ee2854" stroke="black" stroke-width="2"/>
<path d="M34.5005 9.87576C48.0982 9.87598 59.1216 20.8964 59.1216 34.491C59.1214 48.0854 48.0981 59.105 34.5005 59.1053C20.9027 59.1053 9.87859 48.0856 9.87842 34.491C9.87842 20.8963 20.9026 9.87576 34.5005 9.87576Z" fill="white" stroke="black" stroke-width="2"/>
<path d="M41.8675 28.5403L37.1817 33.2253V31.8515H35.1571V35.2499L31.0034 39.4029H33.6617L41.8653 31.1992L49.8408 39.4029H52.499L41.8675 28.5403Z" fill="#1C1C1C"/>
<path d="M33.92 45.808H33.3354V43.1627H33.92V42.437H33.3354V40.48H31.7773V42.4355H29.5071V40.48H28.399L29.816 39.0638H29.5064V36.4156H31.7766V37.1032L33.3332 35.5466V33.0424H34.077V32.3166H33.3339V29.6692H35.6048V30.773H37.16V29.6692H39.2113L41.8645 27.016V24.3707H19.4199V50.187H33.92V45.808ZM37.16 26.296H39.4309V28.9434H37.16V26.296ZM33.3325 26.296H35.6048V28.9434H33.3339L33.3325 26.296ZM29.5057 26.296H31.7758V28.9434H29.5071L29.5057 26.296ZM29.5057 29.6692H31.7758V32.3166H29.5071L29.5057 29.6692ZM29.5057 33.0424H31.7758V35.6906H29.5071L29.5057 33.0424ZM24.123 45.808H21.8521V43.1627H24.123V45.808ZM24.123 42.4348H21.8521V39.7895H24.123V42.4348ZM24.123 39.0616H21.8521V36.4156H24.123V39.0616ZM24.123 35.6884H21.8521V33.0424H24.123V35.6884ZM24.123 32.3145H21.8521V29.6692H24.123V32.3145ZM24.123 28.9413H21.8521V26.296H24.123V28.9413ZM27.9505 45.808H25.6796V43.1627H27.9505V45.808ZM27.9505 42.4348H25.6796V39.7895H27.9505V42.4348ZM27.9505 39.0616H25.6796V36.4156H27.9505V39.0616ZM27.9505 35.6884H25.6796V33.0424H27.9505V35.6884ZM27.9505 32.3145H25.6796V29.6692H27.9505V32.3145ZM27.9505 28.9413H25.6796V26.296H27.9505V28.9413ZM31.7773 45.808H29.5071V43.1627H31.7773V45.808Z" fill="#1C1C1C"/>
<path d="M41.8537 32.8631L35 39.719V50.187H48.5036V39.7031L41.8537 32.8631ZM39.9817 38.2365H41.534V39.7895H39.9788L39.9817 38.2365ZM39.9817 40.8846H41.534V42.437H39.9788L39.9817 40.8846ZM43.2296 48.5166H40.2776V44.4846H43.2296V48.5166ZM43.8524 42.4362H42.2972V40.8846H43.8495L43.8524 42.4362ZM43.8524 39.7888H42.2972V38.2365H43.8495L43.8524 39.7888Z" fill="#1C1C1C"/>
<path d="M37.4723 21.0918H23.8125V23.4909H37.4723V21.0918Z" fill="#1C1C1C"/>
<path d="M34.9977 17.813H26.2871V20.212H34.9977V17.813Z" fill="#1C1C1C"/>
</svg>
