<svg width="69" height="92" viewBox="0 0 69 92" fill="none" xmlns="http://www.w3.org/2000/svg">
<path d="M34.5 88.999L33.8652 89.7725L34.5 90.293L35.1348 89.7725L34.5 88.999ZM34.5 88.999L35.1348 89.7715L35.1367 89.7705C35.138 89.7695 35.1394 89.7675 35.1416 89.7656C35.1461 89.762 35.1528 89.7569 35.1611 89.75C35.1778 89.7362 35.2026 89.716 35.2344 89.6895C35.298 89.6363 35.3916 89.5579 35.5127 89.4551C35.7552 89.2491 36.1086 88.9448 36.5576 88.5488C37.456 87.7565 38.7364 86.5953 40.2715 85.1162C43.3406 82.1591 47.4344 77.9232 51.5303 72.8076C59.6899 62.6164 68 48.7608 68 34.4902C67.9998 15.9938 53.0011 1 34.5 1C15.9989 1 1.00024 15.9938 1 34.4902C1 48.7608 9.31012 62.6164 17.4697 72.8076C21.5654 77.9231 25.6585 82.1591 28.7275 85.1162C30.2627 86.5954 31.544 87.7565 32.4424 88.5488C32.8914 88.9448 33.2448 89.2492 33.4873 89.4551C33.6084 89.5579 33.702 89.6363 33.7656 89.6895C33.7974 89.716 33.8222 89.7362 33.8389 89.75C33.8472 89.7569 33.8539 89.762 33.8584 89.7656C33.8606 89.7674 33.862 89.7695 33.8633 89.7705L33.8652 89.7715L34.5 88.999Z" fill="#ee2854" stroke="black" stroke-width="2"/>
<path d="M34.5005 9.87576C48.0982 9.87598 59.1216 20.8964 59.1216 34.491C59.1214 48.0854 48.0981 59.105 34.5005 59.1053C20.9027 59.1053 9.87859 48.0856 9.87842 34.491C9.87842 20.8963 20.9026 9.87576 34.5005 9.87576Z" fill="white" stroke="black" stroke-width="2"/>
<path d="M44.25 25.1274V21.0892H40.5744V22.7764L35.2346 19.3591L21.2441 28.3108L22.7471 30.6596L35.2346 22.6698L47.7221 30.6596L49.225 28.3108L44.25 25.1274Z" fill="#1C1C1C"/>
<path d="M24.6567 30.206V31.5217H30.9201L32.6961 32.9684L30.943 34.5646H30.6685V40.7362H24.6567V45.4574H41.5073V38.8485L43.2041 37.3211L44.6945 38.5199L45.8119 37.5135V30.206L35.2343 23.768L24.6567 30.206ZM38.0552 44.8351H32.4134V36.0897H38.0552V44.8351ZM33.7158 27.7544H35.1899V29.2285H33.7158V27.7544ZM33.7158 29.4675H35.1899V30.9408H33.7158V29.4675ZM35.4134 27.7544H36.8875V29.2285H35.4134V27.7544ZM36.8875 29.466V30.9393H35.4134V29.466H36.8875Z" fill="#1C1C1C"/>
<path d="M52.7245 44.5346V39.2103L51.6988 38.386L50.7842 39.2103V40.1257H49.9028V39.2103L48.8772 38.386L47.9626 39.2103V40.1257H47.0805V39.2103L46.0556 38.386L45.1402 39.2103V40.1257H44.2589V39.2103L43.234 38.386L42.3186 39.2103V44.5346H20.1585V33.7513H22.0825V34.8813H20.9725V39.9237H29.8599V34.8813H28.7536V33.7513H30.6318L31.4561 33.001L30.6318 32.335H20.1585V31.484L19.4082 30.6604L18.7422 31.484V32.3313H17.3125V33.7513H18.7385V44.5346H17.3125V45.6409H53.6879V44.5346H52.7245ZM23.8275 39.0978C23.7739 39.1823 23.6967 39.2492 23.6055 39.2902C23.4964 39.3391 23.3778 39.3629 23.2584 39.3598C23.0808 39.367 22.9055 39.3172 22.7582 39.2177C22.6925 39.1696 22.639 39.1068 22.6018 39.0343C22.5647 38.9619 22.545 38.8818 22.5443 38.8004H23.1082C23.1163 38.8973 23.1592 38.9484 23.2369 38.9484C23.2631 38.9494 23.2889 38.9424 23.3109 38.9284C23.3208 38.921 23.3286 38.9114 23.3338 38.9003C23.3389 38.8892 23.3413 38.877 23.3405 38.8647C23.3399 38.8442 23.3336 38.8242 23.3222 38.8071C23.3108 38.7899 23.2949 38.7763 23.2762 38.7678C23.2116 38.7343 23.1446 38.7058 23.0756 38.6827C22.9831 38.6507 22.8928 38.6123 22.8055 38.568C22.7334 38.5296 22.6713 38.4749 22.6242 38.4082C22.5706 38.3287 22.5446 38.2338 22.5502 38.1381C22.5472 38.0378 22.5771 37.9393 22.6353 37.8576C22.6937 37.7778 22.7735 37.7162 22.8655 37.68C22.9708 37.6387 23.0831 37.6183 23.1962 37.6201C23.3723 37.6106 23.5463 37.6613 23.6898 37.7636C23.7506 37.8118 23.7995 37.8733 23.8329 37.9433C23.8662 38.0134 23.8831 38.0901 23.8822 38.1677H23.3109C23.3131 38.13 23.3004 38.0931 23.2754 38.0648C23.2534 38.0442 23.2242 38.033 23.194 38.0337C23.1838 38.0335 23.1737 38.0355 23.1642 38.0395C23.1548 38.0434 23.1463 38.0493 23.1393 38.0567C23.1316 38.0653 23.1258 38.0754 23.1221 38.0863C23.1184 38.0972 23.117 38.1088 23.1178 38.1203C23.1186 38.1402 23.1249 38.1596 23.136 38.1762C23.1471 38.1928 23.1626 38.2059 23.1807 38.2143C23.2455 38.2495 23.3131 38.2795 23.3827 38.3038C23.4731 38.337 23.5614 38.3758 23.6469 38.42C23.7172 38.4577 23.7788 38.5099 23.8275 38.5732C23.8795 38.6445 23.9056 38.7314 23.9015 38.8196C23.9036 38.9175 23.8779 39.0139 23.8275 39.0978ZM24.1153 36.126V36.5249H23.6373V37.162H23.1067V35.4704H24.3018V35.8907H23.6358V36.126H24.1153ZM25.2594 39.3435L25.1757 39.086H24.6119L24.5282 39.3413H23.971L24.5904 37.6489H25.2024L25.8188 39.3413L25.2594 39.3435ZM25.7426 37.068C25.6083 37.1413 25.4578 37.1798 25.3049 37.1798C25.1519 37.1798 25.0014 37.1413 24.8672 37.068C24.7358 36.9945 24.6264 36.8872 24.5504 36.7572C24.4737 36.6207 24.4335 36.4668 24.4335 36.3103C24.4335 36.1537 24.4737 35.9998 24.5504 35.8633C24.6261 35.7332 24.7355 35.6261 24.8672 35.5532C25.0017 35.4804 25.1523 35.4422 25.3052 35.4422C25.4582 35.4422 25.6088 35.4804 25.7433 35.5532C25.8743 35.6262 25.983 35.7333 26.0578 35.8633C26.134 35.9999 26.174 36.1538 26.174 36.3103C26.174 36.4667 26.134 36.6206 26.0578 36.7572C25.9823 36.8868 25.8734 36.9939 25.7426 37.0673V37.068ZM26.9806 39.3435H25.9379V37.6504H26.4722V38.9417H26.9836L26.9806 39.3435ZM27.799 37.162H27.2159L26.8977 36.5545V37.162H26.3671V35.4704H27.156C27.2773 35.4676 27.3976 35.493 27.5075 35.5444C27.5986 35.5873 27.6746 35.6567 27.7258 35.7434C27.7755 35.8292 27.8011 35.9269 27.7998 36.0261C27.8013 36.134 27.7681 36.2396 27.7051 36.3273C27.6379 36.4183 27.5428 36.4848 27.4342 36.5167L27.799 37.162ZM28.2763 38.0729H27.6784V38.2809H28.2046V38.6797H27.6784V38.9188H28.2763V39.342H27.1478V37.6504H28.2763V38.0729ZM28.3696 34.8806H22.4644V33.7513H28.3696V34.8806ZM49.9036 43.0406H50.7849V44.5339H49.9028L49.9036 43.0406ZM47.9633 44.5339H47.0805V43.0413H47.9626L47.9633 44.5339ZM50.7849 40.8339V42.3279H49.9028V40.8361L50.7849 40.8339ZM47.9633 40.8339V42.3279H47.0805V40.8361L47.9633 40.8339ZM45.1409 40.8339V42.3279H44.2589V40.8361L45.1409 40.8339ZM44.2596 43.0391H45.1409V44.5324H44.2589L44.2596 43.0391Z" fill="#1C1C1C"/>
<path d="M24.7402 38.6879H25.0466L24.8934 38.2172L24.7402 38.6879Z" fill="#1C1C1C"/>
<path d="M25.3059 35.9314C25.2597 35.9286 25.2136 35.9364 25.1709 35.9541C25.1282 35.9718 25.0901 35.9989 25.0595 36.0335C25.0036 36.1143 24.9736 36.2102 24.9736 36.3084C24.9736 36.4066 25.0036 36.5025 25.0595 36.5833C25.1246 36.6482 25.2128 36.6846 25.3048 36.6846C25.3967 36.6846 25.4849 36.6482 25.5501 36.5833C25.606 36.5025 25.6359 36.4066 25.6359 36.3084C25.6359 36.2102 25.606 36.1143 25.5501 36.0335C25.5198 35.9991 25.482 35.972 25.4397 35.9543C25.3974 35.9366 25.3517 35.9288 25.3059 35.9314Z" fill="#1C1C1C"/>
<path d="M27.1057 35.9151H26.8955V36.2H27.1057C27.1468 36.2033 27.1877 36.1912 27.2204 36.166C27.2341 36.1516 27.2446 36.1345 27.2513 36.1157C27.2579 36.097 27.2605 36.077 27.2588 36.0572C27.2599 36.0378 27.2569 36.0184 27.2502 36.0002C27.2434 35.982 27.233 35.9654 27.2196 35.9514C27.1878 35.9249 27.1469 35.9119 27.1057 35.9151Z" fill="#1C1C1C"/>
</svg>
