<svg width="36" height="36" viewBox="0 0 36 36" fill="none" xmlns="http://www.w3.org/2000/svg">
<path d="M24.8675 12.5403L20.1817 17.2253V15.8515H18.1571V19.2499L14.0034 23.4029H16.6617L24.8653 15.1992L32.8408 23.4029H35.499L24.8675 12.5403Z" fill="#1C1C1C"/>
<path d="M16.92 29.808H16.3354V27.1627H16.92V26.437H16.3354V24.48H14.7773V26.4355H12.5071V24.48H11.399L12.816 23.0638H12.5064V20.4156H14.7766V21.1032L16.3332 19.5466V17.0424H17.077V16.3166H16.3339V13.6692H18.6048V14.773H20.16V13.6692H22.2113L24.8645 11.016V8.37073H2.41992V34.187H16.92V29.808ZM20.16 10.296H22.4309V12.9434H20.16V10.296ZM16.3325 10.296H18.6048V12.9434H16.3339L16.3325 10.296ZM12.5057 10.296H14.7758V12.9434H12.5071L12.5057 10.296ZM12.5057 13.6692H14.7758V16.3166H12.5071L12.5057 13.6692ZM12.5057 17.0424H14.7758V19.6906H12.5071L12.5057 17.0424ZM7.12296 29.808H4.85208V27.1627H7.12296V29.808ZM7.12296 26.4348H4.85208V23.7895H7.12296V26.4348ZM7.12296 23.0616H4.85208V20.4156H7.12296V23.0616ZM7.12296 19.6884H4.85208V17.0424H7.12296V19.6884ZM7.12296 16.3145H4.85208V13.6692H7.12296V16.3145ZM7.12296 12.9413H4.85208V10.296H7.12296V12.9413ZM10.9505 29.808H8.6796V27.1627H10.9505V29.808ZM10.9505 26.4348H8.6796V23.7895H10.9505V26.4348ZM10.9505 23.0616H8.6796V20.4156H10.9505V23.0616ZM10.9505 19.6884H8.6796V17.0424H10.9505V19.6884ZM10.9505 16.3145H8.6796V13.6692H10.9505V16.3145ZM10.9505 12.9413H8.6796V10.296H10.9505V12.9413ZM14.7773 29.808H12.5071V27.1627H14.7773V29.808Z" fill="#1C1C1C"/>
<path d="M24.8537 16.8631L18 23.719V34.187H31.5036V23.7031L24.8537 16.8631ZM22.9817 22.2365H24.534V23.7895H22.9788L22.9817 22.2365ZM22.9817 24.8846H24.534V26.437H22.9788L22.9817 24.8846ZM26.2296 32.5166H23.2776V28.4846H26.2296V32.5166ZM26.8524 26.4362H25.2972V24.8846H26.8495L26.8524 26.4362ZM26.8524 23.7888H25.2972V22.2365H26.8495L26.8524 23.7888Z" fill="#1C1C1C"/>
<path d="M20.4723 5.09183H6.8125V7.49087H20.4723V5.09183Z" fill="#1C1C1C"/>
<path d="M17.9977 1.81296H9.28711V4.212H17.9977V1.81296Z" fill="#1C1C1C"/>
</svg>
