<svg width="37" height="37" viewBox="0 0 37 37" fill="none" xmlns="http://www.w3.org/2000/svg">
<path d="M27.25 11.1274V7.08919H23.5744V8.77639L18.2346 5.35907L4.24414 14.3108L5.74708 16.6596L18.2346 8.66983L30.7221 16.6596L32.225 14.3108L27.25 11.1274Z" fill="#1C1C1C"/>
<path d="M7.65674 16.206V17.5217H13.9201L15.6961 18.9684L13.943 20.5646H13.6685V26.7362H7.65674V31.4574H24.5073V24.8485L26.2041 23.3211L27.6945 24.5199L28.8119 23.5135V16.206L18.2343 9.76801L7.65674 16.206ZM21.0552 30.8351H15.4134V22.0897H21.0552V30.8351ZM16.7158 13.7544H18.1899V15.2285H16.7158V13.7544ZM16.7158 15.4675H18.1899V16.9408H16.7158V15.4675ZM18.4134 13.7544H19.8875V15.2285H18.4134V13.7544ZM19.8875 15.466V16.9393H18.4134V15.466H19.8875Z" fill="#1C1C1C"/>
<path d="M35.7245 30.5346V25.2103L34.6988 24.386L33.7842 25.2103V26.1257H32.9028V25.2103L31.8772 24.386L30.9626 25.2103V26.1257H30.0805V25.2103L29.0556 24.386L28.1402 25.2103V26.1257H27.2589V25.2103L26.234 24.386L25.3186 25.2103V30.5346H3.15854V19.7513H5.08254V20.8813H3.97254V25.9237H12.8599V20.8813H11.7536V19.7513H13.6318L14.4561 19.001L13.6318 18.335H3.15854V17.484L2.40818 16.6604L1.74218 17.484V18.3313H0.3125V19.7513H1.73848V30.5346H0.3125V31.6409H36.6879V30.5346H35.7245ZM6.82746 25.0978C6.77387 25.1823 6.69669 25.2492 6.60546 25.2902C6.49644 25.3391 6.37784 25.3629 6.2584 25.3598C6.08077 25.367 5.90548 25.3172 5.75816 25.2177C5.6925 25.1696 5.63897 25.1068 5.60185 25.0343C5.56472 24.9619 5.54502 24.8818 5.5443 24.8004H6.10818C6.11632 24.8973 6.15924 24.9484 6.23694 24.9484C6.26306 24.9494 6.28887 24.9424 6.31094 24.9284C6.32076 24.921 6.3286 24.9114 6.33377 24.9003C6.33893 24.8892 6.34126 24.877 6.34054 24.8647C6.33992 24.8442 6.33356 24.8242 6.32218 24.8071C6.3108 24.7899 6.29486 24.7763 6.27616 24.7678C6.21161 24.7343 6.14457 24.7058 6.07562 24.6827C5.98308 24.6507 5.89283 24.6123 5.80552 24.568C5.73344 24.5296 5.67135 24.4749 5.62422 24.4082C5.57056 24.3287 5.54456 24.2338 5.55022 24.1381C5.54716 24.0378 5.57705 23.9393 5.63532 23.8576C5.69366 23.7778 5.77347 23.7162 5.86546 23.68C5.97077 23.6387 6.08313 23.6183 6.19624 23.6201C6.37228 23.6106 6.54629 23.6613 6.68982 23.7636C6.75059 23.8118 6.79952 23.8733 6.83287 23.9433C6.86622 24.0134 6.8831 24.0901 6.88222 24.1677H6.31094C6.31314 24.13 6.30037 24.0931 6.27542 24.0648C6.25339 24.0442 6.22417 24.033 6.19402 24.0337C6.1838 24.0335 6.17366 24.0355 6.16424 24.0395C6.15481 24.0434 6.14631 24.0493 6.13926 24.0567C6.13162 24.0653 6.12579 24.0754 6.12211 24.0863C6.11842 24.0972 6.11696 24.1088 6.1178 24.1203C6.11858 24.1402 6.12487 24.1596 6.13597 24.1762C6.14707 24.1928 6.16256 24.2059 6.1807 24.2143C6.24551 24.2495 6.31307 24.2795 6.38272 24.3038C6.47313 24.337 6.56136 24.3758 6.6469 24.42C6.71722 24.4577 6.77876 24.5099 6.82746 24.5732C6.87945 24.6445 6.90556 24.7314 6.90146 24.8196C6.90358 24.9175 6.87792 25.0139 6.82746 25.0978ZM7.11532 22.126V22.5249H6.63728V23.162H6.1067V21.4704H7.3018V21.8907H6.6358V22.126H7.11532ZM8.25936 25.3435L8.17574 25.086H7.61186L7.52824 25.3413H6.97102L7.5904 23.6489H8.20238L8.8188 25.3413L8.25936 25.3435ZM8.74258 23.068C8.60834 23.1413 8.45783 23.1798 8.30487 23.1798C8.15191 23.1798 8.0014 23.1413 7.86716 23.068C7.73579 22.9945 7.62644 22.8872 7.55044 22.7572C7.47375 22.6207 7.43347 22.4668 7.43347 22.3103C7.43347 22.1537 7.47375 21.9998 7.55044 21.8633C7.62606 21.7332 7.73551 21.6261 7.86716 21.5532C8.00168 21.4804 8.15225 21.4422 8.30524 21.4422C8.45823 21.4422 8.6088 21.4804 8.74332 21.5532C8.87434 21.6262 8.98305 21.7333 9.05782 21.8633C9.13403 21.9999 9.17404 22.1538 9.17404 22.3103C9.17404 22.4667 9.13403 22.6206 9.05782 22.7572C8.98226 22.8868 8.87342 22.9939 8.74258 23.0673V23.068ZM9.9806 25.3435H8.93794V23.6504H9.47222V24.9417H9.98356L9.9806 25.3435ZM10.799 23.162H10.2159L9.89772 22.5545V23.162H9.36714V21.4704H10.156C10.2773 21.4676 10.3976 21.493 10.5075 21.5444C10.5986 21.5873 10.6746 21.6567 10.7258 21.7434C10.7755 21.8292 10.8011 21.9269 10.7998 22.0261C10.8013 22.134 10.7681 22.2396 10.7051 22.3273C10.6379 22.4183 10.5428 22.4848 10.4342 22.5167L10.799 23.162ZM11.2763 24.0729H10.6784V24.2809H11.2046V24.6797H10.6784V24.9188H11.2763V25.342H10.1478V23.6504H11.2763V24.0729ZM11.3696 20.8806H5.46438V19.7513H11.3696V20.8806ZM32.9036 29.0406H33.7849V30.5339H32.9028L32.9036 29.0406ZM30.9633 30.5339H30.0805V29.0413H30.9626L30.9633 30.5339ZM33.7849 26.8339V28.3279H32.9028V26.8361L33.7849 26.8339ZM30.9633 26.8339V28.3279H30.0805V26.8361L30.9633 26.8339ZM28.1409 26.8339V28.3279H27.2589V26.8361L28.1409 26.8339ZM27.2596 29.0391H28.1409V30.5324H27.2589L27.2596 29.0391Z" fill="#1C1C1C"/>
<path d="M7.74023 24.6879H8.04659L7.89341 24.2172L7.74023 24.6879Z" fill="#1C1C1C"/>
<path d="M8.30587 21.9314C8.25975 21.9286 8.21359 21.9364 8.1709 21.9541C8.12821 21.9718 8.0901 21.9989 8.05945 22.0335C8.00357 22.1143 7.97363 22.2102 7.97363 22.3084C7.97363 22.4066 8.00357 22.5025 8.05945 22.5833C8.12463 22.6482 8.21283 22.6846 8.30476 22.6846C8.3967 22.6846 8.4849 22.6482 8.55007 22.5833C8.60596 22.5025 8.63589 22.4066 8.63589 22.3084C8.63589 22.2102 8.60596 22.1143 8.55007 22.0335C8.51976 21.9991 8.48203 21.972 8.43973 21.9543C8.39743 21.9366 8.35165 21.9288 8.30587 21.9314Z" fill="#1C1C1C"/>
<path d="M10.1057 21.9151H9.89551V22.2H10.1057C10.1468 22.2033 10.1877 22.1912 10.2204 22.166C10.2341 22.1516 10.2446 22.1345 10.2513 22.1157C10.2579 22.097 10.2605 22.077 10.2588 22.0572C10.2599 22.0378 10.2569 22.0184 10.2502 22.0002C10.2434 21.982 10.233 21.9654 10.2196 21.9514C10.1878 21.9249 10.1469 21.9119 10.1057 21.9151Z" fill="#1C1C1C"/>
</svg>
