<svg width="39" height="42" viewBox="0 0 39 42" fill="none" xmlns="http://www.w3.org/2000/svg">
<g clip-path="url(#clip0_2437_7)">
<path opacity="0.29" d="M29.1799 38.9841C28.9957 38.8804 28.6291 38.6141 28.1387 38.237L29.1799 38.9841Z" fill="#2E2E2E"/>
<path d="M38.9901 36.582C38.9038 36.3248 38.6231 36.3139 37.8454 36.3461C37.0677 36.3782 36.1819 36.1654 35.2764 35.8533C34.371 35.5412 29.1395 33.013 29.1395 33.013L32.3525 34.9494C32.1392 34.841 25.8941 31.6061 25.6075 31.4692C25.5103 31.423 25.1037 31.2221 24.6038 30.975C24.6205 30.9367 25.1011 29.8579 25.1539 29.6686C25.2067 29.4793 29.5822 18.9511 29.5822 18.9511C31.127 18.8976 31.1376 17.847 31.0189 17.2148C30.9002 16.5825 30.2521 16.5074 29.8673 16.3036C29.4825 16.0999 29.7217 15.9062 29.5822 15.4572C29.4428 15.0081 29.1071 15.2104 29.1071 15.2104C29.1071 15.2104 28.9553 15.0392 28.5548 14.696C28.1543 14.3527 28.0815 14.1815 27.9176 13.8289C27.7538 13.4763 26.5567 13.7541 26.5567 13.7541C27.0533 13.4431 27.8528 13.5395 27.8528 13.5395C27.8528 13.5395 26.9164 12.4022 26.698 11.8556C26.4795 11.309 26.6441 11.1591 26.3958 10.3444C26.1475 9.52973 24.7112 8.94049 23.9441 8.46794C23.1769 7.99539 23.091 7.47118 23.091 7.47118C24.6464 9.05718 25.9531 9.27178 25.9531 9.27178C24.8084 7.26743 23.2636 6.46359 23.2636 6.46359C24.1144 6.64423 25.0905 7.48672 25.1204 7.51129C24.0078 5.90397 21.9456 5.16481 21.9456 5.16481C23.9765 5.66084 25.0891 7.02284 25.0891 7.02284C25.1528 5.41842 23.2377 4.73922 23.1788 4.71863C25.0571 5.07196 25.4565 6.73382 25.4565 6.73382C25.5657 6.13338 25.3592 5.30823 25.3592 5.30823C25.6399 5.75838 25.7335 6.90832 25.7335 6.90832C26.11 7.17169 26.663 7.04018 26.663 7.04018C26.8403 6.77645 26.951 5.37073 26.951 5.37073C27.2386 6.09581 26.951 6.77645 26.951 6.77645C28.7437 7.21576 28.9869 5.91987 28.9869 5.91987C30.3592 5.10736 29.7177 3.30641 29.7177 3.30641C29.2848 1.15863 28.0473 0.69114 27.993 0.671992C28.0414 0.699449 29.0183 1.27026 28.5002 2.38407C27.9861 3.48957 28.2391 4.18322 28.2555 4.22658C27.7702 3.50403 27.9686 3.4809 27.5929 2.31796C27.2171 1.15502 26.1984 0.451253 26.1984 0.451253C25.9105 0.451253 25.2908 0.912601 25.2908 0.912601C27.3493 2.71356 27.2608 4.66986 27.2608 4.66986C26.4639 1.55134 25.1 1.1561 25.1 1.1561C24.7763 2.07844 24.5382 2.01232 24.5382 2.01232C25.4459 3.396 24.981 4.4502 24.981 4.4502C25.2467 2.95669 24.2284 2.12215 24.2284 2.12215C23.8745 2.2952 23.7853 2.18537 23.7853 2.18537C23.9157 3.13661 24.4541 3.83242 24.4709 3.8541C21.0121 0.958483 17.699 4.97803 17.5486 5.16517C18.4563 3.82845 19.9563 2.91009 19.9563 2.91009C22.4127 1.74606 23.8738 3.08567 23.8738 3.08567C23.8738 2.77822 23.7187 2.33891 23.3426 1.78978C22.9665 1.24064 22.7899 1.24245 22.7899 1.24245C22.1036 0.80169 20.7536 1.96499 20.7536 1.96499C20.8628 1.41586 22.4135 0.866719 22.4135 0.866719C21.7497 0.16404 20.2224 1.83313 20.2224 1.83313C21.0634 0.229792 21.8382 0.273868 21.8382 0.273868C20.6003 0.0762502 19.1378 0.976547 19.1378 0.976547C19.6912 0.273867 21.0634 0.0542125 21.0634 0.0542125C19.625 -0.18748 18.8724 0.427409 18.8724 0.427409C18.1421 1.21896 17.5442 0.955232 15.6161 2.38299C13.6879 3.81075 12.7416 5.63446 12.7416 5.63446L12.7165 5.64639L14.3218 5.86315C15.0463 5.45744 15.5127 5.49284 15.5127 5.49284C17.399 2.54918 19.0348 2.19296 19.0854 2.18176C17.2628 2.97982 15.678 5.69877 15.678 5.69877L12.8221 7.55717L14.6949 6.01127C14.6949 6.01127 14.214 5.94733 13.4607 5.9047C13.0169 5.87941 12.6131 5.85159 12.3561 5.83244C10.8357 6.72298 11.2205 7.82379 11.2205 7.82379C11.2744 7.15904 11.6847 6.99828 11.6847 6.99828C11.0585 8.24178 11.8577 8.89533 11.8577 8.89533C13.251 9.91593 14.7306 8.97373 14.7306 8.97373C15.8433 10.0456 17.1718 9.75625 17.1718 9.75625C15.7784 10.2707 14.6767 9.33825 14.6767 9.33825C13.0162 9.9741 13.6056 11.6349 13.6384 11.7227C13.0041 10.3643 13.737 9.6475 13.737 9.6475C13.2401 9.79743 11.8686 10.6551 11.7929 12.2732C11.7171 13.8914 13.9409 13.9351 13.9409 13.9351C12.5152 14.2032 11.6509 13.4636 11.6509 13.4636C12.0182 16.8596 15.28 16.3036 15.28 16.3036C14.9236 16.4644 13.6493 16.4218 13.6493 16.4218L14.5023 16.6573L12.4504 17.6758L12.0397 17.3325L11.8038 17.5359L11.4794 17.1291C10.7876 17.4612 10.9824 18.0937 10.9824 18.0937L11.1768 18.2021L10.7341 18.4702L10.7665 18.6201L11.2973 18.4796L11.1572 18.6404C11.6432 19.3047 12.1941 19.0045 12.1941 19.0045L12.2156 18.5439L12.5181 18.4688C12.5935 18.2881 12.5505 17.9543 12.5505 17.9543L14.9265 16.8705C15.4883 16.8809 16.2121 17.8351 16.2121 17.8351L16.2226 17.4919C18.9747 19.5428 22.4382 18.3174 22.4976 18.2961C21.6656 18.9066 19.7764 18.9388 19.3228 18.9604C18.8691 18.9821 17.6378 19.0688 16.2645 20.4608C14.8912 21.8528 13.8881 22.2311 13.8881 22.2311L16.3078 24.8337L14.1911 23.0562C14.2016 23.0772 14.5679 23.7788 14.5256 24.1491C14.4823 24.5244 13.8776 24.5465 13.5426 24.5566C13.2077 24.5667 13.1862 24.4706 13.1862 24.4706C13.0675 24.1386 13.2186 24.1599 13.1538 23.2275C13.116 22.6702 12.9846 22.1232 12.7649 21.609C12.7649 21.609 12.5381 20.7195 12.7435 21.6628C12.9488 22.6061 12.8188 22.3806 12.4842 22.4236C12.1497 22.4666 12.5381 22.8308 12.106 23.2907C11.6738 23.7506 11.2096 23.4515 11.2096 23.4515C11.0152 23.0226 11.6308 22.937 11.6308 22.937C10.8208 22.476 10.6263 23.4301 10.6263 23.4301C10.6263 23.4301 9.50315 22.7238 8.05702 21.6306C6.61089 20.5374 5.64826 20.398 3.20746 18.0829C0.766658 15.7679 0.71241 14.546 0.247842 14.6103C-0.216725 14.6746 -0.0113832 15.9499 0.80962 17.0432C1.63062 18.1364 2.50514 18.8116 2.8725 19.0688C3.23986 19.3261 6.48018 21.8557 6.76089 22.0269C7.04159 22.1982 8.62826 23.5277 8.93081 23.6776C9.23336 23.8275 13.7367 27.5147 13.7367 27.5147L22.2161 34.3847C22.0097 34.272 13.6504 27.8818 12.876 27.2907L23.1988 35.3829C23.1988 35.3829 27.3464 38.759 28.6964 39.7988C29.4956 40.4168 30.3444 40.9689 31.2344 41.4494C33.8922 42.3927 34.1401 41.8888 34.1616 41.6532C34.1831 41.4177 33.9024 41.2352 33.168 41.1279C32.4337 41.0206 32.023 40.892 32.023 40.892C29.9842 40.0383 24.4137 35.5769 24.2295 35.4295L28.1415 38.237C25.3825 36.1123 18.7162 30.4634 18.7162 30.4634C19.9694 30.0454 19.1699 29.1881 19.1699 29.1881L23.782 31.3637L23.9757 31.4562L23.9335 31.5675L23.253 31.6318V31.9855L22.605 31.8771C22.4105 32.9057 23.0572 33.143 23.0572 33.143L23.2945 33.0144L23.0572 33.6239L23.2516 33.7322L23.608 33.1318L23.6295 33.4208C24.7312 33.4851 24.8175 32.8742 24.8175 32.8742L24.4407 32.5628L24.6566 32.177C24.5703 31.9732 24.2896 31.716 24.2896 31.716L24.3289 31.6235C26.0444 32.4421 31.2956 34.9472 32.8331 35.6604C34.6801 36.5177 35.8914 36.957 35.8914 36.957C38.7742 37.6109 39.0767 36.8392 38.9901 36.582ZM18.8997 29.2178C18.8997 29.2178 18.5826 29.4909 18.0219 29.4707L16.3836 28.001L18.1606 29.208L16.3861 27.7929C16.4516 27.8344 17.7296 28.6422 18.2243 28.2842C18.7191 27.9262 18.6612 27.6701 18.6583 27.6552C18.6805 27.6834 19.294 28.4558 18.8997 29.2178ZM24.2295 30.79C23.2913 30.3258 22.2271 29.7976 22.2271 29.7976C22.2271 29.7976 23.3612 29.0368 22.6701 28.2864C21.9857 27.5436 20.4969 28.2084 20.4667 28.2217C21.4982 27.325 22.195 27.7376 22.2143 27.7521C20.9091 26.6039 20.6178 25.4479 20.6178 25.4479C21.2874 24.7513 21.4188 23.015 21.4188 23.015C22.5955 22.088 24.5499 19.7217 24.5812 19.6848C24.551 19.7079 23.166 20.773 23.134 20.773C23.1019 20.773 20.6823 21.6841 20.6823 21.6841L21.6434 21.7163L22.5839 21.2983C22.4983 21.4149 19.7225 23.5999 19.6788 23.6343L20.4991 23.2488C20.4991 23.2488 19.6028 24.2029 19.041 24.5671C18.4792 24.9312 18.3492 25.178 18.3492 25.178C17.798 25.9648 18.576 27.1289 18.943 27.622C19.31 28.1151 19.2241 28.7152 19.2241 28.7152C19.1736 28.3391 19.0288 27.9816 18.8029 27.6755C18.4362 27.1769 17.9291 26.7087 17.897 26.6802L18.4697 27.118C18.4697 27.118 18.0033 26.2065 17.9928 25.6285C17.9822 25.0505 18.3383 24.8676 18.7162 24.5447C19.0941 24.2217 19.5805 23.8373 19.5805 23.8373C17.7765 23.9981 17.5282 24.7806 17.5282 24.7806C17.6469 23.8694 18.1872 22.1332 20.304 21.5009C22.372 20.8831 24.4294 19.5706 24.524 19.5096C23.8301 19.894 21.8273 20.1183 21.8273 20.1183C21.8273 20.1183 25.2835 19.3358 25.4681 18.0067C25.6527 16.6776 24.496 16.024 23.32 15.6584C22.144 15.2928 22.1426 14.7581 22.1426 14.7581C22.4451 15.3361 22.9203 15.2082 24.2488 15.7765C25.5773 16.3448 25.6206 17.4164 25.6206 17.4164C26.1606 16.1945 25.3072 15.2726 24.1516 14.5009C22.996 13.7292 22.2613 13.5684 22.2613 13.5684C22.8231 13.4828 24.1083 14.3296 24.1083 14.3296C23.9786 12.8397 23.6546 12.6573 23.4602 12.5074C23.2658 12.3574 23.0368 11.9001 22.7346 11.0091C22.4692 10.2281 22.112 10.0005 22.0286 9.95675L22.4211 10.141C22.4211 10.141 22.443 9.79779 22.0541 8.52249C21.6653 7.24719 20.4769 7.22552 20.4769 7.22552C21.2116 7.0326 21.7625 7.65435 21.7625 7.65435C21.449 6.88267 20.4445 6.93614 20.4445 6.93614C21.2127 6.75875 21.6631 7.16121 21.686 7.18216C21.2327 6.6146 20.6932 6.64676 20.6932 6.64676C21.3627 6.56113 21.8703 7.05427 21.9675 7.46143C22.0647 7.86859 22.368 8.73673 22.368 8.73673C22.6021 9.34873 23.087 10.5431 23.1019 10.5792L22.5839 9.66015C22.9403 11.4391 23.3848 11.9109 24.0096 12.5753C24.6344 13.2397 25.0465 14.3975 25.0465 14.3975L24.9063 13.2075C25.2501 13.7842 25.5637 14.3781 25.846 14.9868C26.3426 16.0478 25.8999 16.3694 26.4074 16.6804C26.9019 16.9828 27.5798 16.4731 27.6158 16.446L27.3147 16.7231C28.589 16.584 28.9243 15.8979 28.9243 15.8979C28.7299 16.7874 27.5525 16.8665 27.5525 16.8665C27.5201 18.3813 30.1662 17.1411 30.1662 17.1411C29.6372 17.8163 28.3822 17.8058 28.3822 17.8058C28.3822 17.8058 28.4365 18.213 28.7062 18.213C28.976 18.213 29.1169 18.5558 29.1169 18.5558C29.1169 18.5558 26.2017 25.8319 26.0062 26.2286C25.8606 26.5263 24.7683 29.3825 24.2295 30.79Z" fill="#2E2E2E"/>
<path d="M3.87455 21.0735C3.87455 21.0735 7.00019 22.5277 7.35808 22.648L10.152 24.9074C10.152 24.9074 5.9287 22.9565 4.4265 22.1866C2.9243 21.4167 0.339326 19.4355 0.787874 18.5067C0.787874 18.5067 0.874161 18.4384 1.18436 18.7292C1.49455 19.02 3.87455 21.0735 3.87455 21.0735Z" fill="#2E2E2E"/>
</g>
<defs>
<clipPath id="clip0_2437_7">
<rect width="39" height="42" fill="white"/>
</clipPath>
</defs>
</svg>
