<svg width="590" height="60" viewBox="0 0 590 60" fill="none" xmlns="http://www.w3.org/2000/svg">
<path d="M102.867 9.825V14.2125H85.8574V24.2025H101.517V28.59H85.8574V42H81.1324V9.825H102.867ZM111.086 29.7037V42H106.529V17.1937H111.086V25.1025C112.233 20.1637 115.451 17.1937 120.693 17.1937H121.818V21.5362H120.704C113.448 21.5362 111.086 24.1912 111.086 29.7037ZM143.161 33.7762H147.706C146.424 39.3337 142.137 42.675 136.321 42.675C129.031 42.675 124.137 37.41 124.137 29.5575C124.137 21.75 128.975 16.5187 136.186 16.5187C143.285 16.5187 147.83 21.5812 147.83 29.49C147.83 30.0637 147.796 30.5925 147.751 31.2562H128.784C129.312 35.8013 132.147 38.5575 136.434 38.5575C139.73 38.5575 141.946 36.9375 143.161 33.7762ZM128.874 27.3187H143.116C142.509 23.01 140.079 20.6362 136.209 20.6362C132.237 20.6362 129.56 23.145 128.874 27.3187ZM156.304 28.5787V42H151.747V17.1937H156.304V24.36C157.507 19.4775 160.882 16.5187 165.506 16.5187C171.165 16.5187 174.54 20.9287 174.54 28.1287V42H169.984V28.1287C169.984 23.1562 167.869 20.6362 163.616 20.6362C159.037 20.6362 156.304 23.5612 156.304 28.5787ZM182.92 29.5912C182.92 35.1375 185.812 38.5575 190.503 38.5575C194.609 38.5575 196.792 35.925 197.399 32.6512H201.955C201.213 38.2875 197.152 42.675 190.492 42.675C183.224 42.675 178.364 37.4325 178.364 29.5912C178.364 21.75 183.224 16.5187 190.492 16.5187C197.152 16.5187 201.224 20.9062 201.955 26.5425H197.399C196.803 23.2687 194.62 20.6362 190.503 20.6362C185.812 20.6362 182.92 24.045 182.92 29.5912ZM210.442 28.5787V42H205.886V8.7H210.442V24.36C211.646 19.4775 215.021 16.5187 219.645 16.5187C225.292 16.5187 228.679 20.9287 228.679 28.1287V42H224.122V28.1287C224.122 23.1562 222.007 20.6362 217.755 20.6362C213.176 20.6362 210.442 23.5612 210.442 28.5787ZM247.572 42H242.667L254.659 9.825H261.747L273.582 42H268.564L265.628 33.9337H250.553L247.572 42ZM252.128 29.6587H264.064L258.147 13.3912L252.128 29.6587ZM281.214 8.7V42H276.657V8.7H281.214ZM290.288 17.1937V24.855C291.57 19.7475 294.979 16.5187 299.49 16.5187C305.61 16.5187 309.986 21.975 309.986 29.5912C309.986 37.2187 305.61 42.675 299.49 42.675C294.979 42.675 291.57 39.435 290.288 34.3387V50.4938H285.731V17.1937H290.288ZM290.288 29.5912C290.288 35.2612 293.168 38.67 297.938 38.67C302.786 38.67 305.43 35.475 305.43 29.5912C305.43 23.7187 302.798 20.5237 297.938 20.5237C293.168 20.5237 290.288 23.9325 290.288 29.5912ZM318.59 8.7V14.325H313.809V8.7H318.59ZM318.478 17.1937V42H313.921V17.1937H318.478ZM327.551 28.5787V42H322.995V17.1937H327.551V24.36C328.755 19.4775 332.13 16.5187 336.754 16.5187C342.413 16.5187 345.788 20.9287 345.788 28.1287V42H341.231V28.1287C341.231 23.1562 339.116 20.6362 334.864 20.6362C330.285 20.6362 327.551 23.5612 327.551 28.5787ZM368.636 33.7762H373.181C371.898 39.3337 367.612 42.675 361.796 42.675C354.506 42.675 349.612 37.41 349.612 29.5575C349.612 21.75 354.449 16.5187 361.661 16.5187C368.759 16.5187 373.304 21.5812 373.304 29.49C373.304 30.0637 373.271 30.5925 373.226 31.2562H354.258C354.787 35.8013 357.622 38.5575 361.908 38.5575C365.204 38.5575 367.421 36.9375 368.636 33.7762ZM354.348 27.3187H368.591C367.983 23.01 365.553 20.6362 361.683 20.6362C357.712 20.6362 355.034 23.145 354.348 27.3187ZM398.309 16.5187C405.071 16.5187 408.907 19.6912 408.907 24.6975H404.463C404.463 22.155 402.281 20.4562 398.309 20.4562C394.721 20.4562 392.268 21.84 392.268 23.91C392.268 26.2612 395.418 26.745 398.186 27.1837L399.839 27.4425C403.991 28.095 409.818 29.0175 409.818 35.025C409.818 39.9187 405.948 42.675 398.726 42.675C391.199 42.675 387.386 39.6825 387.386 34.2937H391.829C391.829 37.1512 394.034 38.7375 398.714 38.7375C402.933 38.7375 405.386 37.455 405.386 35.1375C405.386 32.4262 402.044 31.83 398.838 31.2787L397.184 30.9975C393.416 30.3562 387.824 29.4225 387.824 24.0112C387.824 19.4437 391.807 16.5187 398.309 16.5187ZM431.892 33.7762H436.437C435.155 39.3337 430.869 42.675 425.052 42.675C417.762 42.675 412.869 37.41 412.869 29.5575C412.869 21.75 417.706 16.5187 424.917 16.5187C432.016 16.5187 436.561 21.5812 436.561 29.49C436.561 30.0637 436.527 30.5925 436.482 31.2562H417.515C418.044 35.8013 420.879 38.5575 425.165 38.5575C428.461 38.5575 430.677 36.9375 431.892 33.7762ZM417.605 27.3187H431.847C431.24 23.01 428.81 20.6362 424.94 20.6362C420.969 20.6362 418.291 23.145 417.605 27.3187ZM440.315 25.8337C440.315 20.13 444.669 16.5187 451.61 16.5187C458.956 16.5187 463.389 20.5462 463.389 27.285V42H458.833V35.3287C457.629 39.8962 453.849 42.675 448.618 42.675C443.195 42.675 439.584 39.6825 439.584 35.1937C439.584 30.66 443.274 27.8587 449.259 27.8587H458.833V27.285C458.833 23.2012 456.02 20.6475 451.531 20.6475C446.953 20.6475 444.871 22.7062 444.871 25.8337H440.315ZM458.833 31.6837H449.214C445.861 31.6837 444.084 32.8537 444.084 35.0362C444.084 37.3987 446.131 38.7037 449.844 38.7037C455.109 38.7037 458.833 36.0712 458.833 32.37V31.6837ZM472.346 29.7037V42H467.79V17.1937H472.346V25.1025C473.493 20.1637 476.711 17.1937 481.953 17.1937H483.078V21.5362H481.965C474.708 21.5362 472.346 24.1912 472.346 29.7037ZM489.954 29.5912C489.954 35.1375 492.845 38.5575 497.536 38.5575C501.643 38.5575 503.825 35.925 504.433 32.6512H508.989C508.246 38.2875 504.185 42.675 497.525 42.675C490.258 42.675 485.398 37.4325 485.398 29.5912C485.398 21.75 490.258 16.5187 497.525 16.5187C504.185 16.5187 508.258 20.9062 508.989 26.5425H504.433C503.836 23.2687 501.654 20.6362 497.536 20.6362C492.845 20.6362 489.954 24.045 489.954 29.5912ZM517.476 28.5787V42H512.92V8.7H517.476V24.36C518.68 19.4775 522.055 16.5187 526.679 16.5187C532.326 16.5187 535.712 20.9287 535.712 28.1287V42H531.156V28.1287C531.156 23.1562 529.041 20.6362 524.789 20.6362C520.21 20.6362 517.476 23.5612 517.476 28.5787ZM558.56 33.7762H563.105C561.823 39.3337 557.537 42.675 551.72 42.675C544.43 42.675 539.537 37.41 539.537 29.5575C539.537 21.75 544.374 16.5187 551.585 16.5187C558.684 16.5187 563.229 21.5812 563.229 29.49C563.229 30.0637 563.195 30.5925 563.15 31.2562H544.183C544.712 35.8013 547.547 38.5575 551.833 38.5575C555.129 38.5575 557.345 36.9375 558.56 33.7762ZM544.273 27.3187H558.515C557.908 23.01 555.478 20.6362 551.608 20.6362C547.637 20.6362 544.959 23.145 544.273 27.3187ZM577.226 16.5187C583.988 16.5187 587.824 19.6912 587.824 24.6975H583.38C583.38 22.155 581.198 20.4562 577.226 20.4562C573.638 20.4562 571.185 21.84 571.185 23.91C571.185 26.2612 574.335 26.745 577.103 27.1837L578.756 27.4425C582.908 28.095 588.735 29.0175 588.735 35.025C588.735 39.9187 584.865 42.675 577.643 42.675C570.116 42.675 566.303 39.6825 566.303 34.2937H570.746C570.746 37.1512 572.951 38.7375 577.631 38.7375C581.85 38.7375 584.303 37.455 584.303 35.1375C584.303 32.4262 580.961 31.83 577.755 31.2787L576.101 30.9975C572.333 30.3562 566.741 29.4225 566.741 24.0112C566.741 19.4437 570.724 16.5187 577.226 16.5187Z" fill="#2E2E2E"/>
<circle cx="30" cy="30" r="28.5" fill="#EE2854" stroke="white" stroke-width="3"/>
<path d="M12.8222 31.2895L9 35.0474C9.60808 34.6596 10.9632 33.7947 11.5192 33.4368C12.0752 33.0789 12.0983 34.0632 12.0404 34.6C12.2141 34.4509 12.7006 34.0989 13.2566 33.8842C13.8125 33.6695 14.0673 34.2719 14.1253 34.6C14.2121 34.1526 15.2545 33.8842 15.9495 33.1684C16.6444 32.4526 20.9879 28.2474 21.6828 27.8C22.3778 27.3526 23.5071 28.8737 23.7677 29.5895C23.9762 30.1621 23.6808 30.4842 23.5071 30.5737L21.1616 32.7211C21.7407 32.3333 23.0206 31.7905 23.5071 32.7211C23.9935 33.6516 22.6673 35.4351 21.9434 36.2105C23.1596 35.5842 26.0263 32.1842 26.5475 31.2895C27.0687 30.3947 28.0242 31.1105 28.198 31.5579C28.337 31.9158 27.1556 33.2579 26.5475 33.8842C27.4162 33.0789 30.3697 33.1684 30.6303 33.4368C30.8909 33.7053 30.3697 34.6 30.3697 35.0474C30.3697 35.4947 31.0646 35.9421 31.4121 36.2105C31.6901 36.4253 31.8754 37.493 31.9333 38C33.0626 35.1368 35.2343 35.0474 35.7556 35.0474C36.2768 35.0474 36.798 37.1947 36.9717 36.8368C37.1455 36.4789 38.5354 36.4789 39.5778 36.8368L39.5778 36.8368C40.6202 37.1947 41.9232 37.6421 41.5758 37.1947C41.2283 36.7474 36.6242 33.9737 35.7556 33.8842C34.8869 33.7947 33.4101 35.4053 32.6283 35.0474C31.8465 34.6895 35.2343 31.4684 35.2343 31.1105C35.2343 30.7526 31.9333 28.1579 31.4121 27.8C30.8909 27.4421 31.1515 26.3684 31.9333 26.1895C32.7152 26.0105 31.6727 25.4737 32.2808 24.7579C32.8889 24.0421 33.4101 24.7579 34.1051 25.4737C34.8 26.1895 35.4081 26.6368 36.1899 27.1737C36.9717 27.7105 37.4061 28.5158 38.2747 29.1421C39.1434 29.7684 41.2283 31.8263 41.9232 32.4526C42.6182 33.0789 44.6162 35.4053 44.9636 35.6737C45.3111 35.9421 45.8323 36.2105 45.8323 35.9421C45.8323 35.6737 43.7475 33.8842 43.7475 33.1684C43.7475 32.4526 44.2687 32.0947 44.6162 32.1842C44.9636 32.2737 45.398 32.2737 45.1374 31.8263C44.9289 31.4684 45.2242 31.0211 45.398 30.8421C46.9616 32.5421 50.1758 36.0495 50.5232 36.4789C50.9576 37.0158 52 37.9105 52 37.6421C52 37.4274 47.0774 31.2298 44.6162 28.1579L42.2707 31.2895C41.7495 30.6035 40.4812 28.9453 39.5778 27.8C38.6743 26.6547 35.0896 22.7895 33.4101 21C32.0202 21.8589 27.9084 26.3684 26.0263 28.5158C25.3603 27.9491 23.924 26.7263 23.5071 26.3684C22.9859 25.921 22.2909 25.5632 20.0323 27.8C17.7737 30.0368 14.9939 33.0789 14.7333 33.1684C14.5248 33.24 13.3724 31.9456 12.8222 31.2895Z" fill="white"/>
</svg>
