<svg width="16" height="16" viewBox="0 0 16 16" fill="none" xmlns="http://www.w3.org/2000/svg">
<g clip-path="url(#clip0_1791_142)">
<path d="M12.3651 9.68765C12.3861 9.17584 12.4178 8.72603 12.4628 8.37283C12.4665 8.34577 12.4706 8.3188 12.4753 8.29193C13.4607 8.64477 14.4246 9.05663 15.3619 9.52537V9.68765H12.3651Z" stroke="#FF2B5B" stroke-width="0.5"/>
<path d="M12.335 12.8845C12.3285 12.197 12.3264 11.4966 12.3352 10.8386H13.5597C13.4801 11.5432 13.2343 12.0281 12.9537 12.3633C12.7562 12.5993 12.5366 12.7667 12.335 12.8845Z" stroke="#FF2B5B" stroke-width="0.5"/>
<path d="M11.3296 8.22401L11.3296 8.22401L11.3293 8.22584C11.2786 8.62861 11.2435 9.13034 11.2208 9.68786L10.1596 9.68877C10.055 9.04919 9.93218 8.42603 9.79599 7.81853C9.87403 7.71904 9.95405 7.62038 10.0366 7.52152C10.4817 7.64576 10.9321 7.7788 11.3843 7.92311C11.3613 8.02243 11.3431 8.12284 11.3296 8.22401Z" fill="#FF2B5B" stroke="#FF2B5B" stroke-width="0.5"/>
<path d="M15.3593 1.53221C14.8828 1.82862 14.4316 2.12709 14.0016 2.42652C13.9462 1.85828 13.9501 1.13218 13.97 0.578064H15.3593V1.53221Z" stroke="#FF2B5B" stroke-width="0.5"/>
<path d="M12.8201 1.77236C12.8344 2.25843 12.8739 2.77179 12.9665 3.1817C12.5976 3.46433 12.2471 3.74652 11.9149 4.0283C11.8918 3.95194 11.8741 3.87385 11.8621 3.79461V0.572815H12.826C12.8145 0.908002 12.8073 1.33592 12.8201 1.77236Z" stroke="#FF2B5B" stroke-width="0.5"/>
<path d="M12.3409 6.0582C12.1467 6.31303 11.9706 6.58147 11.8138 6.86151C11.502 6.76132 11.192 6.66648 10.8837 6.57701C11.1509 6.2932 11.4364 6.00861 11.7415 5.72324C11.9251 5.8626 12.1269 5.97529 12.3409 6.0582Z" stroke="#FF2B5B" stroke-width="0.5"/>
<path d="M6.8122 9.32756L6.81107 9.32652C6.40595 8.95469 5.9728 8.61558 5.5156 8.31226C5.51909 8.30496 5.52256 8.29763 5.52601 8.29026C5.75663 7.81254 5.86511 7.24393 5.9077 6.63412C6.70098 6.76316 7.56065 6.92459 8.46049 7.12967C8.49488 7.26576 8.52845 7.40263 8.56149 7.5409C8.04581 8.22162 7.5816 8.94061 7.17273 9.69173C7.05765 9.56537 6.93737 9.44387 6.8122 9.32756Z" stroke="#FF2B5B" stroke-width="0.5"/>
<path d="M10.489 0.578064H10.7196V2.06168L10.0807 2.06432C10.2645 1.58371 10.4012 1.08591 10.489 0.578064Z" stroke="#FF2B5B" stroke-width="0.5"/>
<path d="M7.04268 2.6825C7.44683 3.73248 7.80664 4.79943 8.12114 5.88046C7.34809 5.71661 6.61077 5.58255 5.92717 5.47384C5.90717 4.92047 5.85502 4.34172 5.79252 3.76008C6.14719 3.6434 6.48201 3.38239 6.78224 3.02988L6.78228 3.02991L6.78542 3.02606C6.87605 2.91526 6.96188 2.80063 7.04268 2.6825Z" stroke="#FF2B5B" stroke-width="0.5"/>
<path d="M15.362 3.27157C14.594 3.815 13.8712 4.42097 13.2006 5.08342C13.0033 5.06675 12.8115 5.01147 12.6358 4.92124C13.5022 4.18835 14.4127 3.51074 15.362 2.89229V3.27157Z" stroke="#FF2B5B" stroke-width="0.5"/>
<path d="M12.9123 7.23114C13.4943 6.28831 14.5139 5.3715 15.3619 4.70876V8.24869C14.5616 7.87078 13.7442 7.53121 12.9123 7.23114Z" stroke="#FF2B5B" stroke-width="0.5"/>
<path d="M10.7208 3.85842V3.87214L10.7223 3.88578C10.7588 4.21767 10.8556 4.53936 11.0073 4.83483C10.5312 5.28043 10.0747 5.74708 9.63911 6.2334C9.55616 6.21206 9.47253 6.19105 9.38966 6.17041C9.21396 5.5091 9.02142 4.87371 8.8234 4.26877C9.09117 3.93649 9.33141 3.58243 9.54167 3.21021H10.7208V3.85842Z" stroke="#FF2B5B" stroke-width="0.5"/>
<path d="M10.5422 13.4628C10.5107 12.5852 10.4393 11.7095 10.3283 10.8386H11.1912C11.1799 11.689 11.1864 12.6016 11.2019 13.4628H10.5422Z" stroke="#FF2B5B" stroke-width="0.5"/>
<path d="M3.83389 10.1828C4.2175 9.92378 4.56729 9.61675 4.87495 9.26901C5.28525 9.53917 5.67379 9.84206 6.03686 10.1749C6.24923 10.3719 6.44398 10.5874 6.61886 10.819C6.24168 11.6661 5.95691 12.5521 5.76957 13.4615H4.81257C4.77488 12.8766 4.68623 12.296 4.54757 11.7265C4.42085 11.1654 4.17716 10.6393 3.83389 10.1828Z" stroke="#FF2B5B" stroke-width="0.5"/>
<path d="M6.9405 13.4615C7.04402 13.0039 7.1752 12.5534 7.33327 12.1124C7.50335 12.5466 7.62492 12.9991 7.69549 13.4615H6.9405Z" stroke="#FF2B5B" stroke-width="0.5"/>
<path d="M3.44196 11.995L3.44191 11.995L3.44315 12.0001C3.55974 12.48 3.63562 12.9689 3.67004 13.4615H2.64185V10.8334C2.70147 10.8069 2.76171 10.7796 2.82238 10.7512C3.12672 11.1064 3.34014 11.5336 3.44196 11.995Z" stroke="#FF2B5B" stroke-width="0.5"/>
<path d="M14.7087 10.8386H15.358V13.4628H13.4688C14.053 12.948 14.5968 12.1268 14.7087 10.8386Z" stroke="#FF2B5B" stroke-width="0.5"/>
<path d="M2.64185 8.09798C3.05734 8.27044 3.46485 8.46203 3.8631 8.67218C3.59494 8.94151 3.29448 9.1759 2.96868 9.36978C2.86316 9.30161 2.75406 9.23926 2.64185 9.18304V8.09798Z" stroke="#FF2B5B" stroke-width="0.5"/>
<path d="M8.85501 13.4615C8.73529 12.4926 8.42071 11.5583 7.93025 10.7166C8.21491 10.1436 8.53482 9.58941 8.88802 9.05739C9.16862 10.51 9.33964 11.9823 9.3995 13.4615H8.85501Z" stroke="#FF2B5B" stroke-width="0.5"/>
<path d="M2.64185 0.578064H4.29829C4.33711 1.22876 4.41872 1.94805 4.51047 2.68159H2.64185V0.578064Z" stroke="#FF2B5B" stroke-width="0.5"/>
<path d="M4.52601 7.72494C3.91796 7.39326 3.28848 7.10343 2.64185 6.85742V6.23269C3.21116 6.27969 3.93638 6.35163 4.77211 6.46493C4.74289 6.96748 4.66559 7.39588 4.52601 7.72494Z" stroke="#FF2B5B" stroke-width="0.5"/>
<path d="M6.49448 1.33864C6.33824 1.67699 6.14026 1.99395 5.90523 2.28192C5.80914 2.39446 5.7202 2.47923 5.64145 2.54093C5.55762 1.84262 5.47893 1.1732 5.44173 0.578064H6.16056C6.26921 0.815975 6.38229 1.0713 6.49448 1.33864Z" stroke="#FF2B5B" stroke-width="0.5"/>
<path d="M2.64185 5.08064V3.83246H4.64487C4.69946 4.33139 4.74593 4.83005 4.76991 5.30772C3.93171 5.19508 3.20726 5.12507 2.64185 5.08064Z" stroke="#FF2B5B" stroke-width="0.5"/>
<path d="M8.60437 2.53196L8.60436 2.53196L8.6037 2.53317C8.52713 2.67335 8.44593 2.81081 8.36024 2.94534C8.15144 2.37332 7.9407 1.83695 7.73459 1.34235C7.83197 1.09241 7.91569 0.837258 7.98536 0.578064H9.32636C9.18563 1.26238 8.94229 1.92137 8.60437 2.53196Z" stroke="#FF2B5B" stroke-width="0.5"/>
<path d="M0.830322 1.02319V15.1604H15.3497" stroke="#FF2B5B" stroke-width="0.75" stroke-miterlimit="10"/>
<path d="M0.573225 0.126281L0.0681245 0.788881C0.0328157 0.837358 0.0114257 0.894779 0.00631859 0.954797C0.00121144 1.01482 0.0125858 1.0751 0.0391846 1.12898C0.0657834 1.18286 0.106571 1.22824 0.157041 1.26012C0.207511 1.29199 0.265698 1.30911 0.325173 1.30959H1.33537C1.39485 1.30911 1.45304 1.29199 1.50351 1.26012C1.55398 1.22824 1.59476 1.18286 1.62136 1.12898C1.64796 1.0751 1.65934 1.01482 1.65423 0.954797C1.64912 0.894779 1.62773 0.837358 1.59242 0.788881L1.08604 0.126281C1.05578 0.0865675 1.01693 0.054412 0.972478 0.0322869C0.928028 0.0101618 0.87916 -0.00134277 0.829631 -0.00134277C0.780103 -0.00134277 0.731235 0.0101618 0.686784 0.0322869C0.642333 0.054412 0.603484 0.0865675 0.573225 0.126281Z" fill="#FF2B5B"/>
<path d="M15.8741 14.9078L15.2199 14.3871C15.172 14.3513 15.1154 14.3297 15.0561 14.3245C14.9968 14.3193 14.9373 14.3309 14.8841 14.3578C14.8309 14.3847 14.7861 14.4261 14.7547 14.4772C14.7232 14.5283 14.7063 14.5872 14.7058 14.6475V15.672C14.7063 15.7322 14.7232 15.7911 14.7547 15.8422C14.7861 15.8934 14.8309 15.9347 14.8841 15.9616C14.9373 15.9886 14.9968 16.0001 15.0561 15.9949C15.1154 15.9897 15.172 15.9681 15.2199 15.9323L15.8741 15.4194C15.9121 15.3888 15.9428 15.3499 15.9639 15.3056C15.985 15.2613 15.996 15.2128 15.996 15.1636C15.996 15.1144 15.985 15.0659 15.9639 15.0216C15.9428 14.9773 15.9121 14.9384 15.8741 14.9078Z" fill="#FF2B5B"/>
</g>
<defs>
<clipPath id="clip0_1791_142">
<rect width="16" height="16" fill="white"/>
</clipPath>
</defs>
</svg>
