<svg width="21" height="13" viewBox="0 0 21 13" fill="none" xmlns="http://www.w3.org/2000/svg">
<path d="M1 7.12884C1 6.02427 1.89543 5.12885 3 5.12885H17.9176C19.0222 5.12885 19.9176 6.02428 19.9176 7.12885V9.73016C19.9176 10.2824 19.4699 10.7302 18.9176 10.7302H2C1.44771 10.7302 1 10.2824 1 9.73016V7.12884Z" stroke="#FF2B5B" stroke-width="0.75"/>
<path d="M3.00781 2.58441C3.00781 1.47984 3.90324 0.584412 5.00781 0.584412H16.0151C17.1197 0.584412 18.0151 1.47984 18.0151 2.58441V5.12887H3.00781V2.58441Z" stroke="#FF2B5B" stroke-width="0.75"/>
<path d="M5.06704 3.26607C5.13985 3.83095 5.10664 4.43192 5.05929 4.83275C5.04099 4.98765 5.15969 5.12883 5.31567 5.12883H8.6774C8.85028 5.12883 8.97241 4.95656 8.93761 4.78721C8.83185 4.27253 8.86533 3.71502 8.94816 3.29446C8.98091 3.12814 8.85871 2.96228 8.6892 2.96228H5.32422C5.16543 2.96228 5.04674 3.10858 5.06704 3.26607Z" stroke="#FF2B5B" stroke-width="0.75"/>
<path d="M11.9364 3.26607C12.0092 3.83095 11.976 4.43192 11.9287 4.83275C11.9104 4.98765 12.0291 5.12883 12.1851 5.12883H15.5482C15.7207 5.12883 15.8415 4.95779 15.8021 4.78987C15.6659 4.21014 15.7164 3.69506 15.8098 3.29248C15.8482 3.12736 15.7281 2.96228 15.5586 2.96228H12.1936C12.0348 2.96228 11.9161 3.10858 11.9364 3.26607Z" stroke="#FF2B5B" stroke-width="0.75"/>
<path d="M2.64502 10.7302H5.07578V11.4172C5.07578 12.0884 4.53163 12.6326 3.8604 12.6326V12.6326C3.18916 12.6326 2.64502 12.0884 2.64502 11.4172V10.7302Z" stroke="#FF2B5B" stroke-width="0.75"/>
<path d="M15.7131 10.7302H18.1439V11.4172C18.1439 12.0884 17.5997 12.6326 16.9285 12.6326V12.6326C16.2573 12.6326 15.7131 12.0884 15.7131 11.4172V10.7302Z" stroke="#FF2B5B" stroke-width="0.75"/>
</svg>
