<svg width="39" height="34" viewBox="0 0 39 34" fill="none" xmlns="http://www.w3.org/2000/svg">
<mask id="mask0_386_839" style="mask-type:alpha" maskUnits="userSpaceOnUse" x="0" y="0" width="39" height="34">
<path d="M5.00003 1.7561C5.00003 0.786106 5.77826 0 6.73847 0H30.3634C31.3237 0 38.5 2.53001 38.5 3.5L32.1019 27.8345C32.1019 28.8045 31.3237 34 30.3634 34H8C7.03978 34 0 28.8045 0 27.8345L5.00003 1.7561ZM14.0518 23.0609V11.9895H10.4995V23.0609H14.0518ZM12.2764 10.4771C13.5148 10.4771 14.2856 9.62815 14.2856 8.56469C14.2634 7.47824 13.5162 6.65229 12.3001 6.65229C11.0839 6.65229 10.2894 7.47977 10.2894 8.56469C10.2894 9.62815 11.0602 10.4771 12.2527 10.4771H12.2764ZM19.5379 23.0609V16.8778C19.5379 16.5468 19.5616 16.2158 19.6563 15.9798C19.9122 15.3194 20.4967 14.6344 21.4791 14.6344C22.7648 14.6344 23.2782 15.6488 23.2782 17.1383V23.0609H26.8305V16.7108C26.8305 13.3089 25.0788 11.7275 22.7411 11.7275C20.8562 11.7275 20.0114 12.8002 19.5379 13.5556V13.5939H19.5143L19.5379 13.5556V11.9895H15.9871C16.0314 13.0285 15.9871 23.0609 15.9871 23.0609H19.5379Z" fill="white"/>
</mask>
<g mask="url(#mask0_386_839)">
<circle cx="18.5" cy="15.5" r="14.5" fill="#EE2854"/>
</g>
</svg>
