<svg xmlns="http://www.w3.org/2000/svg" width="78" height="49" fill="none"><path stroke="#2E2E2E" stroke-width="2.25" d="M24.763 42.26h-.002l-.046-.002a2.328 2.328 0 0 1-.86-.23 1.34 1.34 0 0 1-.532-.451c-.127-.19-.25-.494-.25-.999 0-1.115.59-3.633 2.829-5.872 2.205-2.206 6.109-4.232 12.89-4.232 6.78 0 10.684 2.026 12.89 4.232 2.238 2.239 2.828 4.757 2.828 5.872 0 .505-.123.809-.25.999a1.34 1.34 0 0 1-.531.451 2.3 2.3 0 0 1-.86.23l-.047.002H24.763Zm19.188-18.98a7.297 7.297 0 1 1 0-10.32l.796-.796-.796.796a7.296 7.296 0 0 1 0 10.32ZM6.136 27.458h-.019a1.39 1.39 0 0 1-.51-.135.67.67 0 0 1-.269-.225c-.055-.082-.13-.243-.13-.556 0-.732.399-2.485 1.968-4.054 1.536-1.536 4.29-2.988 9.157-2.988s7.622 1.452 9.158 2.988c1.569 1.569 1.967 3.322 1.967 4.054 0 .313-.075.473-.13.556a.7.7 0 0 1-.269.224 1.4 1.4 0 0 1-.51.135l-.019.001zM19.87 13.744a5 5 0 1 1-7.071-7.071 5 5 0 0 1 7.07 7.07ZM51.053 27.458h-.019a1.39 1.39 0 0 1-.51-.135.67.67 0 0 1-.269-.225c-.055-.082-.13-.243-.13-.556 0-.732.398-2.485 1.967-4.054 1.536-1.536 4.291-2.988 9.158-2.988s7.622 1.452 9.158 2.988c1.569 1.569 1.967 3.322 1.967 4.054 0 .313-.075.473-.13.556a.67.67 0 0 1-.269.224 1.4 1.4 0 0 1-.51.135l-.02.001zm13.733-13.714a5 5 0 1 1-7.072-7.071 5 5 0 0 1 7.072 7.07Z"/></svg>