<svg width="46" height="30" viewBox="0 0 46 30" fill="none" xmlns="http://www.w3.org/2000/svg">
<path d="M1 14.5697C1 12.9128 2.34315 11.5697 4 11.5697H42C43.6569 11.5697 45 12.9128 45 14.5697V23.0976C45 23.9261 44.3284 24.5976 43.5 24.5976H2.5C1.67157 24.5976 1 23.9261 1 23.0976V14.5697Z" stroke="#8C8C8C" stroke-width="1.5"/>
<path d="M5.66992 4C5.66992 2.34315 7.01307 1 8.66992 1H37.575C39.2318 1 40.575 2.34315 40.575 4V11.5698H5.66992V4Z" stroke="#8C8C8C" stroke-width="1.5"/>
<path d="M10.3996 6.8329C10.6793 8.45436 10.5349 10.298 10.3901 11.2741C10.3673 11.4284 10.4854 11.5695 10.6413 11.5695H19.3278C19.5007 11.5695 19.6218 11.398 19.5743 11.2317C19.1453 9.73091 19.2989 7.97513 19.5877 6.85958C19.6302 6.69548 19.5091 6.5304 19.3396 6.5304H10.6499C10.4911 6.5304 10.3726 6.67642 10.3996 6.8329Z" stroke="#8C8C8C" stroke-width="1.5"/>
<path d="M26.3742 6.8329C26.6539 8.45436 26.5095 10.298 26.3647 11.2741C26.3419 11.4284 26.46 11.5695 26.616 11.5695H35.3038C35.4763 11.5695 35.597 11.3985 35.5472 11.2334C35.0159 9.47382 35.2501 7.93862 35.5577 6.85843C35.6041 6.6954 35.4837 6.5304 35.3142 6.5304H26.6245C26.4657 6.5304 26.3472 6.67642 26.3742 6.8329Z" stroke="#8C8C8C" stroke-width="1.5"/>
<path d="M4.82422 24.5978H10.4779V27.0224C10.4779 28.1269 9.58242 29.0224 8.47785 29.0224H6.82422C5.71965 29.0224 4.82422 28.1269 4.82422 27.0224V24.5978Z" stroke="#8C8C8C" stroke-width="1.5"/>
<path d="M35.2188 24.5978H40.8724V27.0224C40.8724 28.1269 39.977 29.0224 38.8724 29.0224H37.2188C36.1142 29.0224 35.2188 28.1269 35.2188 27.0224V24.5978Z" stroke="#8C8C8C" stroke-width="1.5"/>
</svg>
