<svg width="40" height="40" viewBox="0 0 40 40" fill="none" xmlns="http://www.w3.org/2000/svg">
<g clip-path="url(#clip0_847_761)">
<path d="M30.7821 24.3442C30.8346 23.0089 30.9155 21.8338 31.0326 20.9159C31.0485 20.7976 31.0683 20.6799 31.092 20.5631C33.6324 21.4663 36.1161 22.526 38.529 23.7363V24.3442H30.7821Z" stroke="#8C8C8C"/>
<path d="M30.7133 32.4235C30.6953 30.594 30.6886 28.7208 30.7136 26.9714H34.0371C33.8529 28.8313 33.2155 30.1087 32.479 30.9886C31.913 31.6647 31.2765 32.12 30.7133 32.4235Z" stroke="#8C8C8C"/>
<path d="M28.5728 20.5931L28.5728 20.5931L28.5725 20.5958C28.4397 21.6502 28.3496 22.9831 28.2935 24.4694L25.1873 24.4721C24.913 22.7642 24.586 21.1029 24.2212 19.4857C24.4735 19.1613 24.7337 18.8412 25.0045 18.5198C26.243 18.8636 27.4991 19.2345 28.7604 19.641C28.6783 19.954 28.6157 20.272 28.5728 20.5931Z" fill="#8C8C8C" stroke="#8C8C8C" stroke-width="0.75"/>
<path d="M38.5226 3.89992C37.247 4.69181 36.0441 5.48965 34.9011 6.29009C34.7341 4.7907 34.7475 2.78753 34.8039 1.32007H38.5226V3.89992Z" stroke="#8C8C8C"/>
<path d="M32.1763 4.42731C32.213 5.67292 32.3159 6.98096 32.5573 8.00469C31.5604 8.76678 30.6171 9.52747 29.7274 10.2868C29.6375 10.0306 29.5717 9.76586 29.5312 9.496V1.30713H32.1957C32.1645 2.16099 32.1427 3.28267 32.1763 4.42731Z" stroke="#8C8C8C"/>
<path d="M31.0557 15.0874C30.5122 15.7863 30.0237 16.5275 29.5949 17.3042C28.7176 17.0211 27.8458 16.755 26.9795 16.506C27.7119 15.721 28.4995 14.9337 29.3473 14.1442C29.8632 14.5501 30.4402 14.8685 31.0557 15.0874Z" stroke="#8C8C8C"/>
<path d="M16.9458 23.4105L16.9435 23.4084C15.9086 22.4585 14.8002 21.5945 13.6291 20.8246C13.6539 20.7743 13.6784 20.7234 13.7025 20.672C14.2868 19.4619 14.5549 18.0085 14.654 16.4399C16.6987 16.77 18.9229 17.1861 21.254 17.7194C21.3515 18.1034 21.4463 18.4898 21.5394 18.8807C20.2041 20.6383 19.0066 22.4986 17.9578 24.4446C17.6369 24.084 17.2992 23.7389 16.9458 23.4105Z" stroke="#8C8C8C"/>
<path d="M26.1177 1.32007H26.9248V5.2786L25.0198 5.28646C25.5224 4.00732 25.8904 2.67785 26.1177 1.32007Z" stroke="#8C8C8C"/>
<path d="M17.6374 6.43701C18.7095 9.20245 19.6586 12.0153 20.4818 14.867C18.4385 14.4297 16.4927 14.0757 14.6973 13.792C14.6493 12.3498 14.5117 10.8352 14.3467 9.31161C15.2385 9.0466 16.0908 8.39824 16.8612 7.4937L16.8612 7.49377L16.8675 7.48608C17.1423 7.15011 17.3993 6.79992 17.6374 6.43701Z" stroke="#8C8C8C"/>
<path d="M38.5302 8.24362C36.5807 9.61875 34.7474 11.1553 33.049 12.8375C32.4572 12.7964 31.8835 12.6208 31.3699 12.3257C33.6401 10.395 36.0319 8.61616 38.5302 7.00052V8.24362Z" stroke="#8C8C8C"/>
<path d="M32.095 18.1436C33.5929 15.6449 36.3311 13.2156 38.5305 11.5164V20.8192C36.4303 19.8203 34.2826 18.9273 32.095 18.1436Z" stroke="#8C8C8C"/>
<path d="M26.927 9.64606V9.6735L26.93 9.70078C27.0231 10.5468 27.2758 11.3657 27.673 12.1135C26.4418 13.2618 25.263 14.4664 24.1402 15.7236C23.8854 15.6576 23.6272 15.5929 23.3723 15.5295C22.9224 13.8297 22.4276 12.1978 21.9185 10.6462C22.6161 9.78677 23.2392 8.86814 23.7811 7.90051H26.927V9.64606Z" stroke="#8C8C8C"/>
<path d="M26.2348 33.782C26.1568 31.5041 25.9712 29.2313 25.6786 26.9714H28.1048C28.0734 29.1735 28.091 31.5499 28.1321 33.782H26.2348Z" stroke="#8C8C8C"/>
<path d="M9.40576 25.427C10.4292 24.7503 11.3578 23.9368 12.1661 23.0084C13.2312 23.7025 14.2385 24.484 15.178 25.3452C15.7324 25.8595 16.2393 26.4239 16.6924 27.0314C15.7243 29.1919 14.9981 31.4551 14.5271 33.7787H11.915C11.8257 32.2837 11.6026 30.7996 11.2483 29.3448C10.9257 27.9156 10.2958 26.5783 9.40576 25.427Z" stroke="#8C8C8C"/>
<path d="M17.1957 33.7787C17.4842 32.4712 17.8625 31.186 18.3278 29.9324C18.8393 31.163 19.1945 32.4555 19.3841 33.7787H17.1957Z" stroke="#8C8C8C"/>
<path d="M8.72782 29.9605L8.72771 29.9605L8.73021 29.9708C9.03388 31.2206 9.22771 32.4949 9.30958 33.7787H6.48047V27.0019C6.68086 26.9139 6.88417 26.8216 7.08919 26.7246C7.89679 27.6423 8.46192 28.7556 8.72782 29.9605Z" stroke="#8C8C8C"/>
<path d="M36.6564 26.9714H38.5198V33.782H33.3312C34.8826 32.5179 36.3874 30.4125 36.6564 26.9714Z" stroke="#8C8C8C"/>
<path d="M6.48047 20.0582C7.63433 20.5303 8.76397 21.061 9.86509 21.6485C9.13977 22.3986 8.31701 23.0456 7.41926 23.5715C7.11784 23.3729 6.80428 23.1937 6.48047 23.0351V20.0582Z" stroke="#8C8C8C"/>
<path d="M22.0269 33.7787C21.7375 31.3117 20.9396 28.9327 19.6839 26.7963C20.4503 25.2467 21.3193 23.7519 22.2849 22.3222C23.0306 26.0988 23.4801 29.9296 23.6291 33.7787H22.0269Z" stroke="#8C8C8C"/>
<path d="M6.48047 1.32007H10.8645C10.9606 3.01421 11.1766 4.90207 11.4187 6.8289H6.48047V1.32007Z" stroke="#8C8C8C"/>
<path d="M11.3753 19.4875C9.79804 18.6198 8.1624 17.8654 6.48047 17.2299V15.4461C7.9506 15.5655 9.85507 15.7523 12.0623 16.0541C11.9908 17.4315 11.779 18.6052 11.3753 19.4875Z" stroke="#8C8C8C"/>
<path d="M16.3724 3.34879C15.9738 4.22341 15.465 5.04224 14.8588 5.78482C14.5442 6.15341 14.254 6.41176 14.0047 6.57843C13.7796 4.70565 13.5644 2.90511 13.4713 1.32007H15.4815C15.7705 1.95133 16.0729 2.63304 16.3724 3.34879Z" stroke="#8C8C8C"/>
<path d="M6.48047 12.8173V9.45618H11.725C11.8727 10.7939 11.9984 12.1345 12.0577 13.4133C9.84403 13.1124 7.94116 12.9302 6.48047 12.8173Z" stroke="#8C8C8C"/>
<path d="M21.6209 6.39034L21.6209 6.39033L21.6196 6.39276C21.3864 6.81956 21.1362 7.23638 20.8696 7.6422C20.3137 6.10716 19.7513 4.67266 19.2023 3.35728C19.4636 2.69199 19.6858 2.01174 19.8679 1.32007H23.4692C23.12 3.09695 22.4965 4.80816 21.6209 6.39034Z" stroke="#8C8C8C"/>
<path d="M2.07617 2.55798V37.9009H38.3747" stroke="#8C8C8C" stroke-width="1.5" stroke-miterlimit="10"/>
<path d="M1.43392 0.315642L0.171166 1.97214C0.0828938 2.09333 0.0294188 2.23689 0.016651 2.38693C0.00388309 2.53698 0.032319 2.68768 0.098816 2.82238C0.165313 2.95709 0.267282 3.07055 0.393457 3.15023C0.519632 3.22991 0.665101 3.27272 0.813788 3.27391H3.33929C3.48798 3.27272 3.63345 3.22991 3.75962 3.15023C3.8858 3.07055 3.98777 2.95709 4.05426 2.82238C4.12076 2.68768 4.1492 2.53698 4.13643 2.38693C4.12366 2.23689 4.07019 2.09333 3.98191 1.97214L2.71595 0.315642C2.6403 0.216358 2.54318 0.135969 2.43205 0.0806562C2.32092 0.0253435 2.19875 -0.00341797 2.07493 -0.00341797C1.95111 -0.00341797 1.82894 0.0253435 1.71781 0.0806562C1.60669 0.135969 1.50957 0.216358 1.43392 0.315642Z" fill="#8C8C8C"/>
<path d="M39.6844 37.2695L38.0489 35.9677C37.9293 35.8783 37.7875 35.8242 37.6394 35.8112C37.4912 35.7983 37.3425 35.8271 37.2095 35.8945C37.0765 35.9618 36.9644 36.0651 36.8858 36.1929C36.8071 36.3207 36.7648 36.468 36.7637 36.6186V39.1798C36.7648 39.3304 36.8071 39.4778 36.8858 39.6056C36.9644 39.7334 37.0765 39.8367 37.2095 39.904C37.3425 39.9714 37.4912 40.0002 37.6394 39.9872C37.7875 39.9743 37.9293 39.9201 38.0489 39.8307L39.6844 38.5485C39.7794 38.472 39.8562 38.3748 39.9089 38.264C39.9617 38.1533 39.9891 38.0319 39.9891 37.909C39.9891 37.7861 39.9617 37.6647 39.9089 37.554C39.8562 37.4432 39.7794 37.346 39.6844 37.2695Z" fill="#8C8C8C"/>
</g>
<defs>
<clipPath id="clip0_847_761">
<rect width="40" height="40" fill="white"/>
</clipPath>
</defs>
</svg>
