<svg xmlns="http://www.w3.org/2000/svg" width="38" height="38" fill="none"><path fill="#EE2854" d="M27.89 24.567a15.438 15.438 0 1 0-3.318 3.32h-.003q.105.142.233.273l9.144 9.144a2.375 2.375 0 1 0 3.36-3.358l-9.143-9.144a2.4 2.4 0 0 0-.274-.235m.612-9.13a13.061 13.061 0 1 1-26.123.001 13.061 13.061 0 0 1 26.123 0"/><path fill="#EE2854" stroke="#EE2854" d="M16.444 9.367A1.48 1.48 0 0 0 15.458 9c-.37 0-.724.132-.985.367l-9.266 8.34a.6.6 0 0 0-.152.204.57.57 0 0 0 0 .481.6.6 0 0 0 .152.204.74.74 0 0 0 .493.184.8.8 0 0 0 .267-.048.7.7 0 0 0 .227-.136l9.264-8.341 9.265 8.34a.74.74 0 0 0 .494.185.74.74 0 0 0 .493-.184.6.6 0 0 0 .204-.444.6.6 0 0 0-.204-.445l-3.282-2.952v-4.133a.6.6 0 0 0-.204-.443.74.74 0 0 0-.492-.184h-1.395a.74.74 0 0 0-.492.184.6.6 0 0 0-.205.443v1.623z"/><path fill="#EE2854" d="M15.458 12.47 23.823 20v6.618c0 .499-.22.978-.613 1.33a2.2 2.2 0 0 1-1.479.552H9.186a2.2 2.2 0 0 1-1.478-.551 1.8 1.8 0 0 1-.613-1.331V20z"/></svg>